# xmcd
#
# Track frame offsets: 
#        300
#        17103
#        29746
#        44841
#        70856
#        83436
#        99649
#        115341
#        137222
#        149775
#        165371
#
# Disc length: 2387 seconds
#
# Revision: 0
# Processed by: cddbd v1.5.2PL0 Copyright (c) Steve Scherf et al.
# Submitted via: ExactAudioCopy v1.0b1
#
DISCID=a1094f0b
DTITLE=Dani Wilde - Heal My Blues
DYEAR=2008
DGENRE=General Blues
TTITLE0=Bring Your Loving Home
TTITLE1=Heal My Blues
TTITLE2=Come Undone
TTITLE3=I Love You More Than I Hate My
TTITLE4=I Want Your Loving
TTITLE5=Testify
TTITLE6=In The Mood
TTITLE7=I'm Going Down
TTITLE8=Slow Coach
TTITLE9=Little By Little
TTITLE10=People Like You
EXTD=
EXTT0=
EXTT1=
EXTT2=
EXTT3=
EXTT4=
EXTT5=
EXTT6=
EXTT7=
EXTT8=
EXTT9=
EXTT10=
PLAYORDER=
